PathFileType	4	(X/Y/Z)	./resultDataOpenSim/trcMotMarkerGrf/sub06/qtm-13-02.trc
DataRate	CameraRate	NumFrames	NumMarkers	Units	OrigDataRate	OrigDataStartFrame	OrigNumFrames
250.000000	250.000000	11	24	m	250.000000	68	537
Frame#	Time	L.Toe.Tip			R.Toe.Tip			L.Ankle.Lat			R.Ankle.Lat			L.Ankle.Med			R.Ankle.Med			L.Heel			R.Heel			L.Knee.Lat			R.Knee.Lat			L.Knee.Med			R.Knee.Med			L.Thigh.Upper			R.Thigh.Upper			L.ASIS			R.ASIS			V.Sacral			L.Acromium			R.Acromium			C7			L.Elbow			R.Elbow			L.Wrist.Lat			R.Wrist.Lat
		X1	Y1	Z1	X2	Y2	Z2	X3	Y3	Z3	X4	Y4	Z4	X5	Y5	Z5	X6	Y6	Z6	X7	Y7	Z7	X8	Y8	Z8	X9	Y9	Z9	X10	Y10	Z10	X11	Y11	Z11	X12	Y12	Z12	X13	Y13	Z13	X14	Y14	Z14	X15	Y15	Z15	X16	Y16	Z16	X17	Y17	Z17	X18	Y18	Z18	X19	Y19	Z19	X20	Y20	Z20	X21	Y21	Z21	X22	Y22	Z22	X23	Y23	Z23	X24	Y24	Z24

68	0.268	-1.4306323	0.070725226	-0.11411501	-0.75713709	0.036978416	0.04954177	-1.4184904	0.20343893	-0.14187653	-0.88847011	0.062419766	0.070766642	-1.3945368	0.20234459	-0.061263996	-0.87228285	0.076131681	-0.017942472	-1.4549635	0.26120075	-0.086567933	-0.9489268	0.037163003	0.010768782	-1.0733467	0.3659467	-0.18068217	-0.8314457	0.44246896	0.091262131	-1.0696906	0.3559382	-0.057471715	-0.87705331	0.42728029	-0.028770321	-1.0601621	0.75501656	-0.17450587	-0.99446647	0.781394	0.16311148	-0.97704656	0.80928128	-0.14445542	-0.92733408	0.83383416	0.089515152	-1.1357038	0.89169762	0.015332491	-1.0047877	1.313759	-0.18903042	-1.0007228	1.2913093	0.1721111	-1.0844705	1.3364672	-0.0095636127	-0.98958654	0.99256892	-0.27388722	-1.1403685	1.0107026	0.23395554	-0.76529647	0.88938446	-0.22982695	-1.0850509	0.78380514	0.29124214
69	0.272	-1.4161069	0.072664229	-0.11551774	-0.75712799	0.036907644	0.049623867	-1.4055326	0.20565056	-0.14186534	-0.88843967	0.062374921	0.070712483	-1.3808263	0.20426852	-0.061418374	-0.87203258	0.076132516	-0.01791239	-1.4425012	0.26284638	-0.085732282	-0.94895526	0.03716061	0.010721791	-1.0602667	0.3665126	-0.18165536	-0.82800492	0.44202985	0.091736911	-1.0572364	0.35681297	-0.058181449	-0.87411235	0.42727566	-0.028130806	-1.0532629	0.75604277	-0.17421167	-0.98941734	0.78198332	0.16340238	-0.97050381	0.81035683	-0.14403665	-0.92139099	0.83425205	0.090346262	-1.1296282	0.89288227	0.015445233	-0.99863325	1.3145546	-0.18905248	-0.99340457	1.2921967	0.17226821	-1.0778024	1.3377127	-0.009196488	-0.98477367	0.99324076	-0.27315348	-1.1316033	1.0104279	0.23465221	-0.76186646	0.88743696	-0.23045399	-1.0735249	0.78405839	0.29157651
70	0.276	-1.4012865	0.074372808	-0.11689089	-0.75715723	0.036854978	0.049748437	-1.392281	0.20758708	-0.14182934	-0.88847063	0.062330697	0.070692628	-1.3675675	0.20586303	-0.061341479	-0.87182594	0.076138203	-0.017863156	-1.4296207	0.26417185	-0.085172802	-0.94899409	0.03715663	0.01067335	-1.0471571	0.36729134	-0.18253074	-0.82488838	0.44154446	0.092250533	-1.0445856	0.35788916	-0.058831483	-0.87143484	0.42729077	-0.027301982	-1.0464147	0.75712271	-0.17387237	-0.98401662	0.78268079	0.16380796	-0.96378623	0.81152863	-0.14356405	-0.91554945	0.83476664	0.091186716	-1.1238314	0.8942902	0.015024625	-0.99255025	1.3154394	-0.18905882	-0.98625319	1.2931791	0.17240464	-1.0711663	1.3390261	-0.0088610966	-0.98001995	0.99400193	-0.27240206	-1.122648	1.0102109	0.23533808	-0.75860208	0.88552526	-0.23111746	-1.0618837	0.78442831	0.29188944
71	0.28	-1.386233	0.0758721	-0.1182432	-0.75722452	0.036822143	0.049897617	-1.378754	0.20927773	-0.14179142	-0.88856689	0.062285775	0.070706942	-1.3548716	0.20714343	-0.061009618	-0.8716641	0.076149176	-0.017802276	-1.4165341	0.26519718	-0.084805435	-0.94904101	0.037150316	0.010625409	-1.0340422	0.36828225	-0.18332536	-0.82233174	0.44100698	0.092883362	-1.031685	0.35912411	-0.059427595	-0.86891631	0.42732229	-0.026436331	-1.0395955	0.75827883	-0.17345351	-0.97864774	0.78341315	0.16421474	-0.95690898	0.81280889	-0.14304216	-0.90979334	0.83538592	0.092035384	-1.118469	0.89579548	0.013815928	-0.98653668	1.3164224	-0.18905522	-0.97929536	1.2942539	0.17252131	-1.0645704	1.3403941	-0.0085567024	-0.97538197	0.99484578	-0.27167315	-1.1136191	1.0100922	0.23603448	-0.75552037	0.88366306	-0.23182745	-1.0503177	0.7849	0.29215659
72	0.284	-1.3709988	0.077168423	-0.11954324	-0.75732683	0.036811968	0.050051579	-1.3649933	0.21072849	-0.14176042	-0.888723	0.062241051	0.07074479	-1.3424042	0.20817251	-0.060544281	-0.87154654	0.076164884	-0.017736764	-1.4034384	0.26598233	-0.084514489	-0.9490919	0.037141767	0.010576668	-1.0209449	0.36947354	-0.18403995	-0.82028942	0.44044702	0.093614892	-1.0185204	0.36049583	-0.060002201	-0.86648125	0.42737494	-0.025690523	-1.032786	0.75957537	-0.17295931	-0.97350212	0.7841505	0.16456288	-0.95011852	0.81420218	-0.14258288	-0.90410074	0.83610161	0.09289616	-1.1135001	0.8973447	0.011907452	-0.98058483	1.3175105	-0.18904884	-0.97247103	1.2954352	0.17261516	-1.058027	1.3418044	-0.0082895034	-0.970887	0.99577101	-0.2710205	-1.1046019	1.0101021	0.23673956	-0.75259969	0.88185327	-0.23258168	-1.0389441	0.78547313	0.29235467
73	0.288	-1.3556335	0.078248643	-0.12069747	-0.7574614	0.036823777	0.050199993	-1.3510543	0.21192696	-0.14173562	-0.88892822	0.062201682	0.070790627	-1.3294366	0.20909089	-0.060203848	-0.8714724	0.076182818	-0.017669768	-1.3903689	0.26655624	-0.08437919	-0.94914634	0.037133001	0.010524142	-1.0078807	0.37084962	-0.18465839	-0.81839146	0.43990326	0.09429464	-1.0050396	0.36201278	-0.060617674	-0.86409575	0.42744021	-0.025116369	-1.0259698	0.76107184	-0.17244445	-0.96842952	0.78492926	0.16489275	-0.94359701	0.815698	-0.14227086	-0.89845204	0.83690486	0.093772606	-1.1085568	0.8989198	0.0098931815	-0.97468299	1.3186981	-0.18904471	-0.96571306	1.2967276	0.17267843	-1.0515478	1.3432537	-0.0080654354	-0.96653822	0.99677817	-0.27050488	-1.095597	1.0102431	0.23742701	-0.74974159	0.88009389	-0.23335433	-1.0276383	0.78618353	0.29248107
74	0.292	-1.3401202	0.07910369	-0.12161546	-0.75763047	0.036848717	0.050343179	-1.3369935	0.21285688	-0.14171018	-0.88917084	0.062175957	0.07083483	-1.3152136	0.21005703	-0.060250842	-0.87144853	0.076197965	-0.017601444	-1.3772853	0.26688209	-0.084337439	-0.94920763	0.037127515	0.010467622	-0.99486409	0.37239935	-0.18516557	-0.81632467	0.43938499	0.094794468	-0.99119957	0.36369726	-0.061308174	-0.86170721	0.42750253	-0.024726659	-1.0191367	0.76275809	-0.17199714	-0.96320865	0.78580672	0.1652698	-0.93728135	0.81728103	-0.14207582	-0.89283375	0.83779074	0.094667395	-1.1031789	0.90051027	0.0084729791	-0.96881855	1.3199729	-0.18904423	-0.95899341	1.298125	0.17270862	-1.0451349	1.3447444	-0.0078856267	-0.96232136	0.99786678	-0.27013188	-1.0865636	1.0104993	0.23807742	-0.74681823	0.87839002	-0.23410738	-1.0161687	0.78707918	0.29253915
75	0.296	-1.3243284	0.079767981	-0.12232582	-0.75784176	0.036868924	0.050486339	-1.3228256	0.21352976	-0.14168176	-0.88944273	0.062170729	0.070880388	-1.2998054	0.21105405	-0.060654283	-0.87148998	0.076204162	-0.017531448	-1.3641429	0.26690666	-0.084117089	-0.94927794	0.037128301	0.010408973	-0.98190918	0.37411417	-0.18555726	-0.8141312	0.43889934	0.095141434	-0.97712095	0.36554044	-0.061979951	-0.85928994	0.42755852	-0.024523121	-1.0122804	0.76455387	-0.17168541	-0.95795363	0.78676141	0.16566811	-0.93100356	0.81894695	-0.14189974	-0.88724707	0.83875925	0.095578927	-1.0972444	0.90212183	0.0078064804	-0.96298455	1.3213274	-0.18904286	-0.95232132	1.2996217	0.17271523	-1.0387814	1.346279	-0.0077457594	-0.95818533	0.99904433	-0.26978951	-1.0774655	1.0108522	0.23871484	-0.74379749	0.8767558	-0.23482611	-1.0044328	0.78817417	0.29252447
76	0.3	-1.3081199	0.080298427	-0.12296168	-0.75809511	0.036869962	0.050632199	-1.3085036	0.21397979	-0.14164772	-0.88974008	0.062185455	0.070937	-1.2841541	0.21187821	-0.061089692	-0.87160311	0.07620176	-0.017461049	-1.3508808	0.26661781	-0.083644608	-0.94935551	0.03713556	0.010349061	-0.96901982	0.37599025	-0.18584194	-0.81205107	0.43847023	0.095440476	-0.96327723	0.36748536	-0.062376151	-0.85689962	0.42761702	-0.024445643	-1.0053932	0.7663874	-0.17149786	-0.9532318	0.7876747	0.16593417	-0.92466522	0.82070202	-0.14167175	-0.88170089	0.83981696	0.09650134	-1.0909767	0.90377628	0.0075661922	-0.95717874	1.3227543	-0.18903576	-0.94570409	1.3012095	0.17270641	-1.0324797	1.3478565	-0.0076321953	-0.95407376	1.0003211	-0.26934094	-1.0682793	1.0112941	0.23941029	-0.74081739	0.87519392	-0.23555142	-0.99247844	0.78944792	0.29243069
77	0.304	-1.2914832	0.080708538	-0.12360983	-0.75836492	0.036860014	0.050776252	-1.293987	0.21421989	-0.1416076	-0.89005445	0.062212901	0.071006958	-1.2690076	0.21238183	-0.061319697	-0.87176444	0.076205715	-0.017392683	-1.3374622	0.26605189	-0.083149209	-0.94943549	0.037146905	0.010289478	-0.95617481	0.37802771	-0.18603641	-0.81021966	0.4381067	0.095744872	-0.95014935	0.36950156	-0.06231161	-0.85457667	0.42769774	-0.024435615	-0.99847735	0.76825989	-0.17138248	-0.94939718	0.78846166	0.16596191	-0.91825627	0.82254839	-0.14139082	-0.87617201	0.84097102	0.097430392	-1.0846283	0.90545999	0.0075119881	-0.9513936	1.3242419	-0.18902797	-0.93912725	1.3028775	0.17267875	-1.0262221	1.3494644	-0.0075281569	-0.94998978	1.0016966	-0.26878818	-1.0590015	1.0118309	0.24022085	-0.73810993	0.87368552	-0.23636615	-0.9803843	0.79087551	0.29225899
78	0.308	-1.2745012	0.080964062	-0.12425136	-0.75861071	0.036863232	0.050908586	-1.2793073	0.21424061	-0.14158142	-0.89036765	0.062244333	0.07107979	-1.2543433	0.21258482	-0.061367732	-0.87192754	0.076233911	-0.017329199	-1.3239071	0.26524311	-0.082847468	-0.94951218	0.037160672	0.010234749	-0.94335246	0.38021562	-0.18614565	-0.80861525	0.43779365	0.096059107	-0.93755366	0.37162752	-0.06193461	-0.85228627	0.42782423	-0.024480965	-0.99156514	0.77021687	-0.1713558	-0.9458269	0.78920089	0.1659082	-0.91178876	0.82447923	-0.14107826	-0.87056439	0.84222549	0.098373431	-1.0783079	0.90709725	0.0077138842	-0.94561521	1.3257824	-0.18902849	-0.93257798	1.304617	0.17262689	-1.0199979	1.3510834	-0.0074300031	-0.9459774	1.0031674	-0.26824217	-1.0496694	1.0124646	0.24109302	-0.73580912	0.87221595	-0.23732142	-0.96819419	0.79243813	0.29201473
